HIERARCHY
ROOT Hips
{
 OFFSET 0.000000 0.000000 0.000000
 CHANNELS 6 Xposition Yposition Zposition Yrotation Xrotation Zrotation
 JOINT Chest
 {
  OFFSET 0.000000 9.876139 0.000104
  CHANNELS 3 Yrotation Xrotation Zrotation
  JOINT Chest2
  {
   OFFSET 0.000000 10.876137 -0.000189
   CHANNELS 3 Yrotation Xrotation Zrotation
   JOINT Chest3
   {
    OFFSET 0.000000 9.827065 0.000000
    CHANNELS 3 Yrotation Xrotation Zrotation
    JOINT Chest4
    {
     OFFSET 0.000000 9.827065 0.000000
     CHANNELS 3 Yrotation Xrotation Zrotation
     JOINT Neck
     {
      OFFSET 0.000000 13.837564 0.000000
      CHANNELS 3 Yrotation Xrotation Zrotation
      JOINT Head
      {
       OFFSET 0.000000 9.147059 -0.000448
       CHANNELS 3 Yrotation Xrotation Zrotation
       End Site
       {
        OFFSET 0.000000 17.513050 -0.000234
       }
      }
     }
     JOINT RightCollar
     {
      OFFSET -3.007721 7.720841 0.000000
      CHANNELS 3 Yrotation Xrotation Zrotation
      JOINT RightShoulder
      {
       OFFSET -14.032560 0.000000 0.000000
       CHANNELS 3 Yrotation Xrotation Zrotation
       JOINT RightElbow
       {
        OFFSET -30.066962 0.000000 0.000000
        CHANNELS 3 Yrotation Xrotation Zrotation
        JOINT RightWrist
        {
         OFFSET -24.575761 0.000000 0.000000
         CHANNELS 3 Yrotation Xrotation Zrotation
         JOINT Prop1
         {
          OFFSET -3.508170 -1.002334 -2.004669
          CHANNELS 3 Yrotation Xrotation Zrotation
          End Site
          {
           OFFSET -75.170729 -33.091210 23.052389
          }
         }
         End Site
         {
          OFFSET -18.342718 0.000000 0.000000
         }
        }
       }
      }
     }
     JOINT LeftCollar
     {
      OFFSET 3.007721 7.720841 0.000000
      CHANNELS 3 Yrotation Xrotation Zrotation
      JOINT LeftShoulder
      {
       OFFSET 14.032560 0.000000 0.000000
       CHANNELS 3 Yrotation Xrotation Zrotation
       JOINT LeftElbow
       {
        OFFSET 30.066962 0.000000 0.000000
        CHANNELS 3 Yrotation Xrotation Zrotation
        JOINT LeftWrist
        {
         OFFSET 24.575761 0.000000 0.000000
         CHANNELS 3 Yrotation Xrotation Zrotation
         End Site
         {
          OFFSET 18.342718 0.000000 0.000000
         }
        }
       }
      }
     }
    }
   }
  }
 }
 JOINT RightHip
 {
  OFFSET -8.019680 -0.000509 -0.000052
  CHANNELS 3 Yrotation Xrotation Zrotation
  JOINT RightKnee
  {
   OFFSET 0.000000 -41.754945 0.000049
   CHANNELS 3 Yrotation Xrotation Zrotation
   JOINT RightAnkle
   {
    OFFSET 0.000000 -40.737371 0.000083
    CHANNELS 3 Yrotation Xrotation Zrotation
    JOINT RightToe
    {
     OFFSET 0.000000 -6.498123 14.692914
     CHANNELS 3 Yrotation Xrotation Zrotation
     End Site
     {
      OFFSET 0.000000 -1.503208 6.410318
     }
    }
   }
  }
 }
 JOINT LeftHip
 {
  OFFSET 8.019680 -0.000509 -0.000052
  CHANNELS 3 Yrotation Xrotation Zrotation
  JOINT LeftKnee
  {
   OFFSET 0.000000 -41.754945 0.000049
   CHANNELS 3 Yrotation Xrotation Zrotation
   JOINT LeftAnkle
   {
    OFFSET 0.000000 -40.737371 0.000083
    CHANNELS 3 Yrotation Xrotation Zrotation
    JOINT LeftToe
    {
     OFFSET 0.000000 -6.498123 14.692914
     CHANNELS 3 Yrotation Xrotation Zrotation
     End Site
     {
      OFFSET 0.000000 -1.503208 6.410318
     }
    }
   }
  }
 }
}
MOTION
Frames: 6
Frame Time: 0.016667
31.116031 81.943319 15.031545 -145.757660 -9.717753 2.343064 -2.549184 11.152411 4.708245 -1.229459 4.956277 2.136761 -1.229459 4.956277 2.136761 -0.938899 3.712984 1.611570 -15.728304 12.707761 1.569565 -30.408806 -10.540904 9.161754 0.178768 10.002273 -2.422176 -27.041389 -36.017159 82.276915 48.736821 7.631465 -5.176382 2.383983 1.861462 -21.726621 -18.231761 -1.111547 -84.443473 0.514094 6.801364 -20.113262 15.965925 -8.135731 -71.690254 2.020045 21.194434 7.324140 0.409161 1.694673 -7.689107 -9.302105 -29.587389 -21.213909 -12.544911 41.962472 -7.744893 19.843549 3.344381 1.001862 0.183896 -3.026327 10.259161 39.299172 3.085287 25.037475 -35.442892 25.867225 -10.535553 1.459593 -26.949882 -0.696738 0.035990 0.014411 -0.036969
31.158588 81.960716 15.176018 -145.864416 -9.822772 2.389158 -2.454204 11.148591 4.833745 -1.193189 4.953579 2.194195 -1.193189 4.953579 2.194195 -0.912171 3.710978 1.654319 -15.775384 12.746388 1.400911 -30.424384 -10.506262 8.855081 0.136261 10.274314 -2.493203 -25.897205 -35.852416 82.526596 49.299410 7.439157 -5.489911 2.588981 1.581948 -21.905492 -18.196608 -1.512714 -84.149959 0.482933 6.891093 -20.089064 16.412047 -8.392057 -71.548297 1.587150 21.329833 7.121798 0.467209 1.702344 -7.619841 -9.077147 -29.515462 -21.382771 -12.695693 41.833938 -7.773219 20.155986 3.482798 1.085881 0.220163 -2.814666 10.242050 39.414686 3.014734 24.983666 -35.597407 26.063201 -10.667401 1.474937 -26.973948 -0.584829 0.031522 0.007978 -0.031779
31.205598 81.972145 15.326192 -145.931263 -9.812966 2.396934 -2.320639 11.136600 4.956687 -1.142043 4.932016 2.250442 -1.142043 4.932016 2.250442 -0.874218 3.694885 1.696031 -15.826152 12.783370 1.290167 -30.469293 -10.457918 8.657571 0.119608 10.482621 -2.519967 -24.194256 -35.628792 82.414376 49.788256 6.962254 -6.305714 2.745191 1.400778 -22.105002 -18.176906 -1.970435 -83.878464 0.441295 6.920327 -19.998326 16.615915 -8.672856 -71.394633 0.913679 21.407237 6.843133 0.494084 1.732480 -7.545359 -8.914758 -29.513737 -21.484161 -12.867794 41.647938 -7.837522 20.139894 3.657983 1.222552 0.265275 -2.512274 10.221242 39.475883 2.825159 24.889928 -35.735228 26.262640 -10.831733 1.492131 -27.004185 -0.465373 0.012041 0.015146 -0.027552
31.252156 81.984598 15.483826 -145.907123 -9.689474 2.394431 -2.188503 11.084998 5.060134 -1.086199 4.904119 2.298315 -1.086199 4.904119 2.298315 -0.832647 3.674083 1.731423 -15.875010 12.817266 1.240280 -30.534458 -10.399075 8.573057 0.096223 10.530869 -2.521705 -22.541670 -35.323768 82.053550 50.222780 6.516959 -7.158637 2.732081 1.110219 -22.144164 -17.998955 -2.498471 -83.721882 0.396486 6.838315 -19.857179 16.662345 -8.974007 -71.179172 0.003844 21.407960 6.444162 0.506904 1.762536 -7.404247 -8.852921 -29.617241 -21.555492 -12.964614 41.445278 -7.894338 20.346538 3.787725 1.374101 0.315843 -2.182694 10.212316 39.404894 2.558204 24.710998 -35.887142 26.457103 -11.043118 1.540799 -27.027013 -0.327981 0.002920 0.021660 -0.018239
31.283599 82.003634 15.640152 -145.803881 -9.525715 2.395428 -2.058976 11.027570 5.144934 -1.033082 4.874605 2.334776 -1.033082 4.874605 2.334776 -0.793020 3.652086 1.758287 -15.919095 12.853013 1.240605 -30.609320 -10.324305 8.579397 0.075850 10.501411 -2.520895 -21.760985 -35.170753 81.814164 50.558457 6.300341 -7.449618 2.694390 0.905931 -22.178284 -17.813515 -3.021206 -83.505655 0.348269 6.726327 -19.692928 16.569205 -9.308296 -70.900880 -1.160525 21.344475 5.906326 0.497668 1.773976 -7.164387 -8.781789 -29.722202 -21.654244 -12.887480 41.254442 -7.816116 20.206673 3.945852 1.538241 0.379513 -1.828347 10.210631 39.206231 2.306666 24.481684 -35.977418 26.638107 -11.242023 1.606305 -27.040530 -0.209273 -0.005030 0.026564 -0.000313
31.306668 82.024122 15.792014 -145.642006 -9.305571 2.412107 -1.921786 10.948998 5.189804 -0.976729 4.834844 2.355681 -0.976729 4.834844 2.355681 -0.750800 3.622446 1.773459 -15.963203 12.904818 1.290213 -30.699279 -10.206941 8.672596 0.026521 10.345760 -2.466097 -21.807638 -35.202274 81.684142 50.718405 6.304861 -7.212640 2.714809 0.704281 -22.342544 -17.696964 -3.312389 -83.235143 0.299889 6.610008 -19.480240 16.334085 -9.636765 -70.589401 -2.613450 21.238964 5.261018 0.479616 1.788469 -6.814443 -8.687745 -29.868294 -21.785213 -12.699989 41.111571 -7.649429 19.910373 4.063407 1.693994 0.333265 -1.402026 8.164320 38.947039 2.023105 24.209860 -36.032444 26.805967 -11.445443 1.646118 -27.068112 -0.101472 -0.008224 0.062397 0.024803
